<?xml version="1.0" encoding="utf-8"?>
<!-- Generator: Adobe Illustrator 19.0.0, SVG Export Plug-In . SVG Version: 6.00 Build 0)  -->
<svg version="1.1" id="Layer_1" xmlns="http://www.w3.org/2000/svg" xmlns:xlink="http://www.w3.org/1999/xlink" x="0px" y="0px"
	 viewBox="0 0 96 96" style="enable-background:new 0 0 96 96;" xml:space="preserve">
<style type="text/css">
	.camera{fill:black;}
</style>
<g id="XMLID_2_">
	<circle id="XMLID_4_" class="camera" cx="48" cy="50.8" r="8.8"/>
	<path id="XMLID_7_" class="camera" d="M39.8,23.3l-5,5.5H26c-3,0-5.5,2.5-5.5,5.5v33c0,3,2.5,5.5,5.5,5.5h44c3,0,5.5-2.5,5.5-5.5v-33
		c0-3-2.5-5.5-5.5-5.5h-8.7l-5-5.5H39.8z M48,64.5c-7.6,0-13.8-6.2-13.8-13.8S40.4,37,48,37s13.8,6.2,13.8,13.8S55.6,64.5,48,64.5z"
		/>
</g>
</svg>
