<?xml version="1.0" encoding="UTF-8"?>
<svg viewBox="0 0 186.97 186.99"
     preserveAspectRatio="xMinYMin meet"
     xmlns="http://www.w3.org/2000/svg">
    <g transform="translate(-10.828 -56.941)">
        <path transform="matrix(.26458 0 0 .26458 9.8273 55.94)"
              d="m357.15 3.7832c-59.7-2.3e-6 -115.93 14.796-165.24 40.918l256.01 147.81c14.638 8.0984 28.085 18.092 40.01 29.648l-77.668-213.39 1.9629-0.71484c-17.947-2.807-36.34-4.2695-55.076-4.2695zm74.258 7.8164 100.58 276.34c6.2109 15.65 10.38 32.328 12.176 49.703l77.607-213.22 1.9258 0.70117c-49.265-56.549-116.23-97.264-192.29-113.52zm-256.43 42.686c-65.005 39.175-116.36 98.682-145.26 169.73l289.48-51.049c12.264-2.5209 24.961-3.8457 37.963-3.8457 4.4693 0 8.8991 0.16684 13.291 0.47461l-196.53-113.47zm461.16 85.928-100.57 276.32c-5.4791 16.432-13.163 31.863-22.707 45.934l196.61-113.51 0.99023 1.7148c-1.4217-79.282-28.933-152.17-74.318-210.46zm-389.24 64.695-223.61 39.43-0.38281-2.166c-12.389 36.04-19.119 74.716-19.119 114.97-7e-7 37.851 5.9507 74.306 16.961 108.49l192.41-229.31 8e-3 8e-3c9.9112-11.794 21.242-22.355 33.729-31.42zm-72.168 106.61-145.84 173.8-1.6816-1.4102c27.56 71.71 77.817 132.15 141.98 172.52v-294.61c-0.0383-1.5594-0.0586-3.1229-0.0586-4.6914 0-15.73 1.9487-31.009 5.5996-45.619zm535.54 58.791-256.25 147.94c-13.972 8.4288-29.124 15.095-45.148 19.682l223.41 39.396-0.35742 2.0312c46.572-57.52 75.443-129.96 78.34-209.05zm-522.19 69.088v226.95h-2.1406c50.716 28.135 109.09 44.158 171.21 44.158 16.411 0 32.559-1.1232 48.375-3.2871l-192.37-229.25 0.01-8e-3c-9.8518-11.724-18.301-24.661-25.086-38.559zm92.439 89.443 145.86 173.84-1.627 1.3652c76.499-14.814 144.18-54.29 194.46-109.83l-289.92-51.117c-17.116-2.5495-33.482-7.41-48.773-14.256z"
              fill="#2196f3"/>
        <path d="m70.453 154.4c-2.0394 7.7998 0.99584 14.997 5.4026 21.807 8.6644 13.393 29.279 5.6828 39.196-1.9798 2.254-1.7412 4.353-3.715 6.1002-5.9631 1.2344-1.5862 2.0275-3.5123 3.232-5.0925 1.2046-1.5862 2.9398-2.8802 4.2934-4.365 5.5278-6.0585 11.002-14.634 10.078-23.185-0.49493-4.5678-3.1426-10.978-7.4658-13.268-1.4967-0.7931-3.7806-3.4288-8.0084-4.3113-5.9631-1.2403-13.375-1.1151-18.671 2.2242-2.904 1.8307-4.198 5.1462-6.4282 7.7103-3.2857 3.7687-7.0067 6.1003-11.342 8.3901-6.1778 3.2678-12.457 8.3305-15.295 14.878-0.45916 1.0614-0.82291 2.111-1.0912 3.1545z"
              fill="#ffc400"
              stroke-width=".596"
              style="mix-blend-mode:normal"/>
    </g>
</svg>
