<svg viewBox="0 0 599 182.3"
     preserveAspectRatio="xMinYMin meet"
     xmlns="http://www.w3.org/2000/svg">
    <path d="M206.5 131.3a158.2 158.2 0 006.4-6.2 141.4 141.4 0 00.3 3.5 34 34 0 002.7 11 21.1 21.1 0 006.9 8.6q4.5 3.4 12.5 3.4A30 30 0 00248 149a34.5 34.5 0 0010.4-7.4q4.6-4.6 8-11a68 68 0 005.2-14 61.5 61.5 0 0012.3-5.8 145.8 145.8 0 0011.9-8A159.6 159.6 0 00303 97a1466.4 1466.4 0 000 .2 509.1 509.1 0 00-3.2 18.8 165.5 165.5 0 00-1.4 11.2q-.4 3.7.6 8 1 4.5 3.4 8.2a20.2 20.2 0 006.8 6.2q4.3 2.6 10.7 2.6a20.4 20.4 0 0011.2-4.9q6.6-4.9 13.6-12.4a181 181 0 005-5.5 52.5 52.5 0 000 .3 30.8 30.8 0 00.1 2.9 27.2 27.2 0 002.7 10.3 14.6 14.6 0 005.3 5.9q3.1 1.8 5.9 1.8a42 42 0 0011.7-2.5q5-2 10.7-6.2t10.4-12a50.3 50.3 0 000 1.9 29 29 0 00.7 7q.8 3.4 1.8 5.6a10.3 10.3 0 003 3.9 11.6 11.6 0 004 1.6 17.1 17.1 0 003.5.4 20 20 0 001.5 0 23.4 23.4 0 005.2-1q2.5-.8 4.5-2a44.5 44.5 0 007.3-6.7q4.4-4.8 9-10.6t8.9-11.5a410.4 410.4 0 001.2-1.7 165.5 165.5 0 00-1.2 10.4q-.4 3.7.6 8 1 4.5 3.4 8.2a20.2 20.2 0 006.7 6.3q4.3 2.5 10.8 2.5a20.4 20.4 0 0011.1-4.9q6.7-4.9 13.7-12.4a181 181 0 007.3-8.4 141.4 141.4 0 00.2 2 34 34 0 002.7 11.2 21.1 21.1 0 006.9 8.5q4.6 3.4 12.6 3.4a30 30 0 0012.6-2.6 34.5 34.5 0 0010.3-7.4q4.6-4.6 8-11a68 68 0 005.2-14 61.5 61.5 0 0012.3-5.8 145.8 145.8 0 0012-8 159.6 159.6 0 009.4-7.6 58.7 58.7 0 005-4.7 9.8 9.8 0 002.1-4 6 6 0 00.2-1.2 2.8 2.8 0 00-.4-1.5 1.6 1.6 0 00-1.5-.8 3 3 0 00-.4 0 7 7 0 00-3.3 2 59.2 59.2 0 01-6.3 5.3 113.4 113.4 0 01-8.5 5.7 148.5 148.5 0 01-9.5 5.4q-4.8 2.5-9.3 4.3a104.3 104.3 0 00.4-3.8 45 45 0 00.1-3.8 30.2 30.2 0 00-2.5-13q-2.5-5.4-6.1-8.9a27 27 0 00-7.5-5.3 19.5 19.5 0 00-6.3-2 19.5 19.5 0 01-1-.3 2.9 2.9 0 00-1.2-.2q-3.5 0-7.2.9t-7 2.5T516 76a16 16 0 00-3.6 5.9q-3.3 3.9-5.8 8.6-2.4 4.7-4 9.3a74 74 0 00-2.4 9.2 43 43 0 00-.7 5 214.6 214.6 0 01-7 7.7 167.6 167.6 0 01-9 9 51.4 51.4 0 01-8.7 6.5 13 13 0 01-6.3 2.2 6.3 6.3 0 01-.8-.1 10.2 10.2 0 01-6.3-2.3q-2.1-2-3.6-6.4a19.6 19.6 0 01-.8-6.1 48.8 48.8 0 01.5-6.7q5.1-11.7 9.2-22 4.1-10.4 7-18.4 3.3-9.2 5.9-17a56.6 56.6 0 001.8-6.4l1.5-6.1 3-.1a40 40 0 012.7-.1q6.2 0 11 .4a270.6 270.6 0 018 .8 49.7 49.7 0 015.9 1q2.4.5 4.4.7a4.8 4.8 0 001 .1 4.2 4.2 0 002.5-.9q1.5-1.1 2.2-2.8.7-1.6.6-3.2a2 2 0 00-1.4-2l-4.1-1.4a56 56 0 00-7.3-2.2q-4.5-1-10.8-2a107.1 107.1 0 00-14.6-.8 105.2 105.2 0 002.2-16.4 66.7 66.7 0 000-2 13.6 13.6 0 00-.8-6 4.7 4.7 0 00-3.1-1.5 16.2 16.2 0 00-2.2-.1 18.5 18.5 0 00-2.3.1q-2.4.3-4.4 1a4.7 4.7 0 00-2.6 1.6 42.2 42.2 0 00-4.4 9.7q-2.5 7-5 16.3a111.8 111.8 0 01-6.8 1 117 117 0 01-7 .6 102.5 102.5 0 01-4 0 80 80 0 01-5.5-.1 219.2 219.2 0 01-8-.7 4.6 4.6 0 00-2.6 1 10 10 0 00-2.5 2.6q-1 1.5-1.1 3a2.4 2.4 0 000 .3 2.1 2.1 0 001.3 1.9 45.8 45.8 0 008.3 2.8 46.3 46.3 0 0011.9 1.5q2.7 0 6-.4l6.7-.8a611.3 611.3 0 00-5.2 23.6 1466.4 1466.4 0 00-4.4 22.8 509.1 509.1 0 00-.8 4.3 250.5 250.5 0 01-3.4 4.4 738 738 0 00-6 7.6 328.4 328.4 0 01-7.1 8.9 212 212 0 01-7.3 8.4q-3.5 3.8-6.7 6.3t-5 2.4a5.4 5.4 0 01-3.7-1q-1.2-1.2-1.8-3a14.1 14.1 0 01-.7-3.7 28 28 0 010-1.4 22.4 22.4 0 01.1-2.4l1-5 .7-3.3.6-3 .6-3.2a1552.6 1552.6 0 003.2-14.6 329.4 329.4 0 001.7-9q.6-3.3.6-4.6a4.4 4.4 0 00-.2-1.7q-.4-.2-1.6-.2a29.3 29.3 0 00-2.8.2q-1.8.2-4.6.8a16.9 16.9 0 003.4-8.6 6.3 6.3 0 00-.2-1.4 9.3 9.3 0 00-3.6-5.8q-3.3-2.2-8.6-3.1a10.6 10.6 0 00-.9 0 23.8 23.8 0 00-10.4 3A57.8 57.8 0 00373 79a86.7 86.7 0 00-13 16.7 72.4 72.4 0 00-7.7 17.8 214.6 214.6 0 01-7.3 8.2 167.6 167.6 0 01-9 9 51.4 51.4 0 01-8.8 6.5 13 13 0 01-6.3 2.2 6.3 6.3 0 01-.8-.1 10.2 10.2 0 01-6.2-2.3q-2.2-2-3.6-6.4a19.6 19.6 0 01-.9-6.1 48.8 48.8 0 01.6-6.7q5-11.7 9.1-22 4.1-10.4 7-18.4 3.4-9.2 6-17a56.6 56.6 0 001.8-6.4l1.4-6.1 3-.1a40 40 0 012.7-.1q6.3 0 11 .4a270.6 270.6 0 018 .8 49.7 49.7 0 016 1q2.4.5 4.3.7a4.8 4.8 0 001 .1 4.2 4.2 0 002.5-.9q1.6-1.1 2.3-2.8.7-1.6.6-3.2a2 2 0 00-1.5-2l-4.1-1.4a56 56 0 00-7.2-2.2q-4.5-1-10.9-2a107.1 107.1 0 00-14.5-.8 105.2 105.2 0 002.1-16.4 66.7 66.7 0 000-2 13.6 13.6 0 00-.8-6 4.7 4.7 0 00-3-1.5 16.2 16.2 0 00-2.3-.1 18.5 18.5 0 00-2.3.1q-2.3.3-4.4 1a4.7 4.7 0 00-2.6 1.6 42.2 42.2 0 00-4.4 9.7q-2.4 7-5 16.3a111.8 111.8 0 01-6.7 1 117 117 0 01-7.2.6 102.5 102.5 0 01-3.9 0 80 80 0 01-5.4-.1 219.2 219.2 0 01-8-.7 4.6 4.6 0 00-2.7 1 10 10 0 00-2.4 2.6q-1 1.5-1.2 3a2.4 2.4 0 000 .3 2.1 2.1 0 001.4 1.9 45.8 45.8 0 008.3 2.8 46.3 46.3 0 0011.8 1.5q2.7 0 6-.4l6.7-.8a611.3 611.3 0 00-5.2 23.6 1466.4 1466.4 0 00-2.4 12.4 59.2 59.2 0 01-4.3 3.5A113.4 113.4 0 01292 96a148.5 148.5 0 01-9.5 5.4q-4.9 2.5-9.4 4.3a104.3 104.3 0 00.4-3.8 45 45 0 00.2-3.8 30.2 30.2 0 00-2.5-13q-2.6-5.4-6.2-8.9a27 27 0 00-7.4-5.3 19.5 19.5 0 00-6.3-2 19.5 19.5 0 01-1.1-.3 2.9 2.9 0 00-1-.2q-3.6 0-7.3.9t-7 2.5q-3.2 1.7-5.6 4.2a16 16 0 00-3.6 5.9q-3.3 3.9-5.8 8.6-2.4 4.7-4 9.3a74 74 0 00-2.4 9.2 43 43 0 00-.8 5.2 296.6 296.6 0 01-.5.6 161.8 161.8 0 01-5.7 6 80.7 80.7 0 01-5.2 4.8q-10.4 8.4-15.6 10a10.6 10.6 0 01-3.1.7 4 4 0 01-3.8-2 5.8 5.8 0 01-.8-3 8.3 8.3 0 01.4-2.5q1-3.2 2.7-7.7 2.6-6.4 4.4-11.3a120.8 120.8 0 003-8.9 93.2 93.2 0 002-7.3q.6-3.3.6-6.5a42.9 42.9 0 000-1.6 25.2 25.2 0 00-.8-6.8q-1-3.5-2.8-5.5a10.6 10.6 0 00-4.3-3 15.2 15.2 0 00-5.2-.8 22.8 22.8 0 00-10 2.2q-4.6 2.3-8.8 5.7-4.2 3.4-7.7 7.5a76.2 76.2 0 00-6.1 8 417.1 417.1 0 019.4-32 434.2 434.2 0 009.2-30.7 515.2 515.2 0 001.7-8q.4-3.1.5-6 .1-3-1-4-.5-1-1.8-1.2-1.4-.3-3-.3-1.7 0-3.9.4a51 51 0 00-4.3 1 43 43 0 00-3.6 1q-1.8.5-3.4 1.5a29 29 0 01.6 6q0 3.4-.4 6.5a158.8 158.8 0 01-1 7.2l-4.3 19a7592.1 7592.1 0 00-7.8 33.4 5953.1 5953.1 0 01-13.8 58 8 8 0 001.7 3.4 13.2 13.2 0 002.4 2 11.5 11.5 0 002.9 1.2q1.3.2 2.7.2 1.2 0 2.6-.4a7 7 0 002.5-1.4 340.9 340.9 0 002.8-13l2.9-13.5a2968.8 2968.8 0 003-15 99.1 99.1 0 016-8.5A66.9 66.9 0 01155 92a41.4 41.4 0 017.2-5.5 13.3 13.3 0 016.7-2.2q4.5 0 5.1 4.4a20.2 20.2 0 01.2 2.7 35.4 35.4 0 01-1 8 115.8 115.8 0 01-4 13 167.6 167.6 0 00-3.8 11.6q-2.1 7.8-2.2 13a14.8 14.8 0 000 .2 15 15 0 003.4 9.4 10.6 10.6 0 008 5.1 21.1 21.1 0 009.8-3.3q5.2-3 11-7.4a213.8 213.8 0 0011.1-9.6zM0 175.6a77.3 77.3 0 002.4-2q1.7-1.3 4-5a72.3 72.3 0 005-10.7q2.7-7 5.6-19.2l4-16.4q2.5-10 5.7-21.3l6.1-23.3a2508.1 2508.1 0 016-22.9 6097.2 6097.2 0 005.3-19.6A1217.1 1217.1 0 0148 21.5a68 68 0 00-7.3 5.3 148.2 148.2 0 00-6.6 5.8q-3.5 3.2-6.9 6.7-2.5-2.2-3.9-4.7a15.7 15.7 0 01-1.3-2.5q-1.2-3-1.2-6t4.9-6.5a287 287 0 017.7-5.1q5.2-3.3 12.8-6.5a108.4 108.4 0 0117.8-5.6A100 100 0 0186.3 0a35.9 35.9 0 0119.9 5q7.5 4.8 11.5 11.8a42.5 42.5 0 015.2 14.9 64.8 64.8 0 01.7 9.5 41.5 41.5 0 01-.2 4.2 68.5 68.5 0 01-7 22.8 79.6 79.6 0 01-16.2 22 92.7 92.7 0 01-25.2 17 89.3 89.3 0 01-34 8L38 130.6a486.6 486.6 0 01-3.3 15.3q-1.8 7.6-3.6 14.1-1.9 6.5-3.9 11.2a22.2 22.2 0 01-5 8.1q-3.2 3-10 3a12.8 12.8 0 01-6.5-1.7 20.5 20.5 0 01-5.6-4.9zm46.3-89a803.3 803.3 0 00-1.5 8 1079.9 1079.9 0 01-2 11.3q5.2-.8 11.7-2.8a73.4 73.4 0 0012.9-5.6Q73.8 94 80 89a69.8 69.8 0 0011.2-11.5 63.5 63.5 0 008.5-14.9q3.4-8.3 4.4-18.4a60 60 0 00.3-6A34.7 34.7 0 00103 28q-2-6.6-6-10.6a22 22 0 00-9-5.6A32.5 32.5 0 0078 10a34 34 0 00-9.6 1.4q-4.7 1.3-9.4 3.5a3.8 3.8 0 011.4 1q1.1 1.1 1.7 3.3l-7.7 31.6a1228.9 1228.9 0 00-4.8 20.7 760.4 760.4 0 00-3.3 15zm349.4 30.8l2.3-9.2q1.4-5.2 2.4-10.1l1.5-8.1a13.9 13.9 0 00.1-2q0-1-.4-1a.4.4 0 000 0q-1 .1-2.2.5-1 .4-2.5.6a26.4 26.4 0 00-3.2.6q1.6-3.1 1.9-5.2a15.4 15.4 0 00.2-2.1 6.6 6.6 0 00-.1-1q-.2-1.5-.8-2.2a2.2 2.2 0 00-1.4-.5 11.1 11.1 0 00-6.1 3.3A66.5 66.5 0 00375 97.9q-3 5-4.7 10.8-1.7 5.8-2.4 10.9a44.8 44.8 0 00-.5 6 28.8 28.8 0 00.2 2.9q.4 3.8 1.5 5a6.4 6.4 0 004.7 2 6.6 6.6 0 00.2 0q2.8-.1 5.6-1.6a32 32 0 005.6-3.8 45.4 45.4 0 005.1-4.9 48.1 48.1 0 003.7-4.7 10.5 10.5 0 001.7-3zm-169.7 4q0 3.4.4 6.9a20.6 20.6 0 001.5 6 11.8 11.8 0 003.1 4.3q2 1.7 5.1 1.7 3.5 0 6.5-1.7a20.7 20.7 0 005.2-4.3 32.2 32.2 0 004.2-6 54.2 54.2 0 003.3-7.2l-2.7.3-2.8.1q-7.4 0-12.8-4.4a29 29 0 01-8.3-11.2q-1.2 4.1-2 8-.7 4-.7 7.4zm286.5 0q0 3.4.4 6.9a20.6 20.6 0 001.5 6 11.8 11.8 0 003.2 4.3q2 1.7 5 1.7 3.6 0 6.5-1.7a20.7 20.7 0 005.3-4.3 32.2 32.2 0 004.2-6 54.2 54.2 0 003.2-7.2l-2.7.3-2.8.1q-7.4 0-12.8-4.4a29 29 0 01-8.3-11.2l-2 8q-.7 4-.7 7.4zM238.5 87a11.7 11.7 0 00-.6 3.7q0 3 .4 6.5.4 3.4 2 6.2a12.2 12.2 0 005 4.6 20 20 0 009.4 1.8 19.6 19.6 0 002 0l1.9-.4a684.5 684.5 0 011-4.6 15.8 15.8 0 00.5-3.6 35.9 35.9 0 00.2-3.7 38.8 38.8 0 00-.2-4 32.9 32.9 0 00-1.4-7q-1-3.3-2.8-5.3a5 5 0 00-4-2 13.7 13.7 0 00-7 2 23.7 23.7 0 00-6.4 5.8zM525 87a11.7 11.7 0 00-.6 3.7q0 3 .4 6.5.4 3.4 2 6.2a12.2 12.2 0 005 4.6 20 20 0 009.4 1.8 19.6 19.6 0 002 0l2-.4a684.5 684.5 0 011-4.6 15.8 15.8 0 00.5-3.6 35.9 35.9 0 00.2-3.7 38.8 38.8 0 00-.2-4 32.9 32.9 0 00-1.5-7q-1-3.3-2.7-5.3a5 5 0 00-4-2 13.7 13.7 0 00-7.2 2A23.7 23.7 0 00525 87z"
          fill="#4dabf5"
          fill-rule="evenodd"
          stroke="none"
          stroke-linecap="round"
          stroke-width=".9"/>
</svg>