<?xml version="1.0" standalone="no"?>
<!DOCTYPE svg PUBLIC "-//W3C//DTD SVG 20010904//EN"
 "http://www.w3.org/TR/2001/REC-SVG-20010904/DTD/svg10.dtd">
<svg version="1.0" xmlns="http://www.w3.org/2000/svg"
 width="700.000000pt" height="700.000000pt" viewBox="0 0 700.000000 700.000000"
 preserveAspectRatio="xMidYMid meet">
<metadata>
Created by potrace 1.11, written by Peter Selinger 2001-2013
</metadata>
<g transform="translate(0.000000,700.000000) scale(0.100000,-0.100000)"
fill="#000000" stroke="none">
<path d="M3278 6996 c-1 -2 -42 -6 -89 -10 -47 -4 -95 -8 -105 -10 -10 -2 -46
-7 -79 -11 -32 -4 -68 -9 -80 -11 -11 -2 -45 -8 -75 -14 -205 -38 -442 -107
-647 -189 -141 -56 -335 -150 -329 -160 3 -4 23 -16 45 -27 23 -10 41 -22 41
-26 0 -5 4 -8 9 -8 5 0 73 -37 152 -83 672 -389 870 -503 905 -523 23 -13 182
-105 355 -205 173 -100 332 -192 354 -204 22 -13 81 -46 130 -75 50 -29 106
-61 125 -72 19 -11 91 -53 160 -93 69 -40 141 -82 160 -92 186 -105 341 -212
434 -298 41 -38 55 -40 36 -5 -6 12 -13 29 -15 38 -2 9 -97 271 -210 582 -113
311 -279 765 -367 1010 -89 245 -162 446 -163 448 -4 5 -46 11 -111 18 -33 3
-74 7 -90 10 -33 5 -540 14 -546 10z"/>
<path d="M4240 6916 c0 -5 209 -585 220 -611 5 -11 36 -96 70 -190 129 -355
142 -391 155 -425 8 -19 43 -116 79 -215 35 -99 71 -198 79 -220 35 -91 421
-1154 437 -1207 26 -78 67 -274 70 -328 1 -27 18 12 78 180 61 167 334 917
372 1020 21 58 78 213 126 345 47 132 102 283 121 335 19 52 42 115 50 140 9
25 20 51 26 58 11 14 3 23 -139 166 -281 283 -584 501 -939 676 -230 113 -441
191 -675 250 -123 31 -130 32 -130 26z"/>
<path d="M1670 6482 c-24 -8 -155 -97 -277 -189 -430 -322 -797 -764 -1032
-1246 -50 -103 -101 -216 -101 -224 0 -3 12 -2 27 1 37 7 70 13 178 31 50 8
101 17 115 20 21 4 500 88 568 100 12 2 30 6 40 9 9 2 40 7 67 11 28 3 68 10
90 15 22 5 54 11 70 14 17 3 95 17 175 31 80 14 161 28 180 31 19 2 49 8 65
11 17 4 32 7 35 8 3 1 26 4 51 8 82 14 103 17 184 32 44 8 94 17 110 19 17 3
56 10 88 15 31 6 81 15 110 20 28 5 90 16 137 25 47 8 101 17 120 21 188 32
324 56 365 64 28 6 66 12 85 15 19 3 44 8 55 10 12 2 45 7 75 11 30 3 69 8 85
10 17 2 88 5 159 5 113 1 126 3 110 15 -11 8 -23 15 -27 15 -4 0 -31 15 -60
33 -29 18 -77 47 -107 64 -30 17 -170 97 -310 178 -140 81 -275 159 -300 173
-25 14 -57 33 -72 43 -14 11 -28 19 -31 19 -3 0 -78 43 -168 95 -89 52 -164
95 -166 95 -2 0 -20 11 -41 23 -20 13 -57 35 -82 49 -25 14 -128 74 -230 133
-102 59 -198 114 -215 123 -16 8 -48 27 -70 42 -22 15 -47 25 -55 22z"/>
<path d="M6255 5628 c-3 -7 -30 -83 -61 -168 -31 -85 -75 -209 -99 -275 -23
-66 -50 -138 -58 -160 -9 -22 -61 -166 -117 -320 -55 -154 -109 -302 -120
-330 -18 -48 -255 -698 -346 -950 -123 -342 -226 -624 -241 -655 -35 -78 -92
-189 -115 -226 -55 -87 -55 -87 144 28 106 62 203 117 215 122 13 6 23 14 23
19 0 4 4 7 9 7 5 0 119 64 253 141 133 78 263 153 288 167 45 25 286 164 580
334 85 50 208 120 273 156 l118 67 -6 105 c-3 58 -7 121 -10 140 -3 19 -7 60
-11 90 -3 30 -7 64 -9 75 -2 11 -6 45 -10 75 -4 30 -9 58 -11 61 -2 4 -6 24
-10 45 -18 119 -123 486 -169 589 -8 17 -28 66 -46 110 -48 119 -170 351 -255
487 -77 121 -189 278 -199 278 -3 0 -8 -6 -10 -12z"/>
<path d="M2325 4994 c-38 -7 -86 -16 -105 -19 -19 -3 -46 -8 -60 -11 -26 -5
-33 -6 -140 -24 -36 -6 -85 -15 -110 -20 -25 -5 -61 -12 -80 -14 -19 -3 -71
-12 -115 -20 -96 -18 -138 -25 -185 -31 -19 -3 -55 -9 -80 -15 -25 -5 -99 -19
-165 -30 -66 -11 -131 -22 -145 -25 -34 -7 -127 -23 -170 -30 -19 -3 -69 -12
-110 -20 -41 -8 -129 -24 -195 -35 -170 -29 -165 -28 -322 -56 -79 -14 -147
-23 -152 -20 -5 3 -13 -11 -19 -32 -5 -20 -21 -77 -36 -126 -14 -48 -28 -98
-31 -110 -65 -304 -72 -343 -92 -556 -15 -157 -8 -606 12 -708 1 -9 6 -42 9
-73 4 -31 9 -67 11 -80 3 -13 7 -39 10 -58 2 -18 7 -41 9 -50 3 -9 8 -30 11
-47 8 -48 71 -295 84 -327 l11 -28 28 33 c16 18 219 260 452 538 232 278 434
519 449 535 14 17 73 86 130 155 289 345 356 425 361 430 3 3 37 43 75 90 38
47 72 87 75 90 3 3 50 59 105 125 55 66 105 125 110 131 6 6 28 32 50 59 113
138 224 251 328 334 37 30 67 56 67 58 0 2 -1 2 -2 2 -2 -1 -34 -8 -73 -15z"/>
<path d="M3790 4728 c-85 -12 -204 -52 -261 -89 -65 -41 -111 -90 -181 -193
-111 -162 -249 -280 -473 -404 -49 -27 -108 -59 -130 -72 -127 -71 -315 -243
-390 -355 -98 -149 -136 -263 -141 -430 -5 -179 34 -321 141 -515 137 -246
236 -333 438 -386 74 -19 228 -26 306 -13 31 4 74 11 96 15 162 25 420 133
600 250 189 123 301 236 408 409 33 53 85 119 127 160 252 245 418 526 455
770 7 47 8 180 1 213 -31 146 -99 298 -168 374 -24 25 -68 63 -98 84 -30 20
-76 52 -101 70 -65 47 -141 80 -229 100 -87 19 -306 26 -400 12z"/>
<path d="M1649 3898 c-19 -24 -61 -74 -95 -113 -33 -38 -118 -140 -190 -225
-194 -232 -402 -479 -445 -530 -20 -25 -79 -94 -130 -155 -50 -60 -111 -132
-134 -160 -24 -27 -126 -150 -229 -272 l-185 -222 28 -68 c204 -494 556 -974
976 -1329 102 -87 373 -284 390 -284 1 0 3 692 3 1538 0 845 3 1555 6 1577 3
22 8 60 10 85 3 25 12 79 20 120 8 41 13 76 12 77 -1 1 -18 -16 -37 -39z"/>
<path d="M6955 3345 c-22 -14 -47 -28 -55 -32 -8 -4 -55 -31 -104 -60 -49 -29
-90 -53 -91 -53 -1 0 -96 -54 -210 -120 -114 -66 -211 -120 -215 -120 -5 0
-10 -4 -12 -9 -1 -5 -25 -20 -53 -35 -27 -15 -70 -38 -95 -53 -25 -14 -119
-68 -210 -121 -91 -52 -217 -125 -280 -162 -63 -37 -135 -79 -160 -92 -25 -14
-68 -39 -96 -55 -27 -17 -70 -41 -95 -55 -24 -14 -217 -126 -429 -249 -426
-247 -628 -353 -743 -390 -43 -13 -77 -27 -77 -32 0 -4 3 -6 8 -5 4 1 39 -4
77 -11 39 -6 84 -14 100 -17 17 -2 53 -9 80 -14 28 -5 64 -12 80 -15 17 -3
109 -19 205 -35 96 -17 225 -40 285 -51 61 -11 126 -22 145 -24 19 -3 55 -9
80 -15 25 -5 126 -23 225 -40 99 -17 187 -32 195 -35 8 -2 35 -7 60 -10 25 -3
52 -8 60 -10 8 -2 33 -6 55 -10 22 -3 47 -7 55 -10 8 -2 31 -7 50 -9 19 -3
100 -17 180 -31 80 -14 163 -28 185 -32 22 -3 47 -9 56 -14 11 -6 22 -2 37 14
17 19 137 183 169 233 7 11 25 37 39 59 82 122 222 394 286 554 52 130 118
331 149 456 36 145 37 149 44 200 3 22 8 47 10 55 11 38 34 199 40 275 7 83
13 205 11 205 0 -1 -19 -12 -41 -25z"/>
<path d="M1828 2658 c-2 -7 -4 -506 -3 -1108 1 -602 -2 -1100 -7 -1106 -13
-18 251 -145 478 -230 83 -31 263 -88 314 -99 8 -1 35 -8 60 -15 75 -20 303
-63 395 -74 245 -29 669 -29 865 1 44 6 47 9 28 30 -8 10 -77 92 -153 183 -75
91 -158 189 -183 219 -26 29 -60 70 -77 91 -65 80 -430 515 -436 520 -3 3 -79
93 -168 200 -90 107 -173 206 -185 220 -11 14 -79 95 -151 180 -71 85 -139
166 -151 180 -12 14 -72 86 -134 160 -62 74 -131 158 -155 185 -23 28 -59 70
-80 95 -20 25 -44 54 -53 65 -37 45 -123 176 -160 244 -22 40 -41 66 -44 59z"/>
<path d="M2758 1785 c9 -16 269 -329 396 -476 17 -20 49 -58 71 -85 22 -26 57
-69 79 -94 21 -25 45 -54 55 -65 9 -11 50 -61 92 -110 41 -50 148 -178 238
-285 90 -107 182 -217 206 -245 111 -131 267 -319 280 -338 l15 -22 133 34
c661 166 1222 486 1679 956 79 81 89 97 66 101 -7 2 -62 12 -123 23 -60 11
-123 22 -140 25 -26 4 -111 19 -235 41 -42 7 -245 43 -280 49 -14 3 -65 12
-115 20 -86 15 -110 20 -165 31 -14 2 -41 7 -60 10 -19 3 -84 14 -145 25 -60
11 -123 22 -140 25 -72 12 -202 35 -225 40 -31 5 -187 33 -260 46 -30 5 -71
12 -90 14 -19 3 -55 10 -80 15 -46 10 -219 40 -256 45 -11 2 -45 8 -75 14 -30
5 -70 13 -89 15 -73 12 -189 32 -260 47 -25 5 -63 12 -85 15 -166 23 -431 99
-484 139 -12 8 -12 7 -3 -10z"/>
</g>
</svg>
